<svg width="20" height="20" viewBox="0 0 20 20" fill="none" xmlns="http://www.w3.org/2000/svg">
<path d="M10.2442 4.41058C10.5697 4.08514 11.0973 4.08514 11.4228 4.41058L16.4228 9.41058C16.579 9.56686 16.6668 9.77882 16.6668 9.99984C16.6668 10.2209 16.579 10.4328 16.4228 10.5891L11.4228 15.5891C11.0973 15.9145 10.5697 15.9145 10.2442 15.5891C9.9188 15.2637 9.9188 14.736 10.2442 14.4106L13.8216 10.8332L4.16683 10.8332C3.70659 10.8332 3.3335 10.4601 3.3335 9.99984C3.3335 9.5396 3.70659 9.1665 4.16683 9.1665L13.8217 9.1665L10.2442 5.58909C9.9188 5.26366 9.9188 4.73602 10.2442 4.41058Z" fill="#fff"/>
</svg>
