<svg width="86" height="70" viewBox="0 0 86 70" fill="none" xmlns="http://www.w3.org/2000/svg">
<g id="transaction-failed">
<g id="wallet">
<g id="wallet_2">
<path id="Shape" d="M53.2838 58.9954H51.9184C51.4205 58.9954 51.0166 58.4638 51.0166 57.807C51.0166 57.1509 51.4205 56.6187 51.9184 56.6187H53.2838C53.7817 56.6187 54.1856 57.1509 54.1856 57.807C54.1856 58.4636 53.7816 58.9954 53.2838 58.9954Z" fill="url(#paint0_linear_84_943)"/>
<path id="Shape_2" d="M36.6461 58.9954H35.2807C34.7823 58.9954 34.3789 58.4638 34.3789 57.807C34.3789 57.1509 34.7823 56.6187 35.2807 56.6187H36.6461C37.144 56.6187 37.5479 57.1509 37.5479 57.807C37.5479 58.4636 37.1439 58.9954 36.6461 58.9954Z" fill="url(#paint1_linear_84_943)"/>
<path id="Shape_3" d="M42.0007 58.8672C42.4697 59.1322 43.0688 58.9734 43.3387 58.5129C43.6136 58.0423 44.127 57.7508 44.6781 57.7508C45.2293 57.7508 45.7425 58.0423 46.0182 58.5129C46.2875 58.9734 46.8866 59.1322 47.3556 58.8677C47.8245 58.6026 47.9862 58.0149 47.7169 57.5539C47.0934 56.4885 45.9288 55.8266 44.6781 55.8266C43.428 55.8266 42.2636 56.4885 41.6399 57.5539C41.3699 58.0142 41.5318 58.6025 42.0007 58.8672Z" fill="url(#paint2_linear_84_943)"/>
<path id="Shape_4" d="M52.997 51.8657C52.3408 51.8657 51.8086 52.2696 51.8086 52.7675V54.1329C51.8086 54.6313 52.3408 55.0347 52.997 55.0347C53.6537 55.0347 54.1853 54.6313 54.1853 54.1329V52.7675C54.1853 52.2697 53.6536 51.8657 52.997 51.8657Z" fill="url(#paint3_linear_84_943)"/>
<path id="Shape_5" d="M35.5673 51.8657C34.9111 51.8657 34.3789 52.2696 34.3789 52.7675V54.1329C34.3789 54.6313 34.9111 55.0347 35.5673 55.0347C36.224 55.0347 36.7556 54.6313 36.7556 54.1329V52.7675C36.7556 52.2697 36.2239 51.8657 35.5673 51.8657Z" fill="url(#paint4_linear_84_943)"/>
<path id="Shape_6" fill-rule="evenodd" clip-rule="evenodd" d="M82.7057 13.0273C82.7057 11.2903 81.2686 9.87695 79.5024 9.87695H23.0615C18.8491 9.87695 15.4186 13.225 15.3698 17.3577C15.3673 17.387 15.3652 17.4163 15.3652 17.4461V59.3492C15.3652 63.5229 18.8177 66.9184 23.0615 66.9184H70.0728C71.8391 66.9184 73.276 65.5051 73.276 63.768V57.8896H79.5029C81.2688 57.8896 82.7058 56.4763 82.7058 54.7392V13.0273H82.7057ZM17.34 17.4463C17.3406 14.3423 19.9067 11.8174 23.0613 11.8174H79.5022C80.1809 11.8174 80.7326 12.36 80.7326 13.0275V36.9551H79.1462V19.9252C79.1462 18.2142 77.7313 16.8228 75.9917 16.8228H40.2145C39.6693 16.8228 39.228 17.2568 39.228 17.7929C39.228 18.3286 39.6693 18.7631 40.2145 18.7631H75.9912C76.6432 18.7631 77.1733 19.2845 77.1733 19.9252V25.7541C76.8081 25.6085 76.4093 25.5272 75.9912 25.5272H73.1952C72.8716 24.125 71.5949 23.075 70.0726 23.075H26.5365V19.9252C26.5365 19.2845 27.0666 18.7631 27.7181 18.7631H36.5318C37.0764 18.7631 37.5182 18.3286 37.5182 17.7929C37.5182 17.2568 37.0764 16.8228 36.5318 16.8228H27.7186C25.9789 16.8228 24.5636 18.2144 24.5636 19.9252V23.0752H23.0613C19.9155 23.0752 17.3549 20.566 17.339 17.4756C17.339 17.4705 17.3392 17.4657 17.3395 17.4609L17.3395 17.4609C17.3398 17.4561 17.34 17.4513 17.34 17.4463ZM73.2759 27.4675V28.9611C74.3723 29.092 75.2257 30.0116 75.2257 31.1247V36.9551H77.1734V28.6301C77.1734 27.9889 76.6432 27.4675 75.9913 27.4675H73.2759ZM73.2529 31.1244V44.7256C73.2529 44.8579 73.1435 44.966 73.0084 44.966H58.4909C54.5436 44.966 51.3315 41.807 51.3315 37.9249C51.3315 34.0422 54.5436 30.8832 58.4909 30.8832H73.0084C73.1435 30.8838 73.2529 30.9914 73.2529 31.1244ZM73.2759 55.9492H79.5028C80.1811 55.9492 80.7328 55.4065 80.7328 54.7398V38.8957H75.2258V44.7261C75.2258 45.8398 74.373 46.7594 73.2761 46.8898V49.15C73.2761 49.6856 72.8343 50.1201 72.2896 50.1201C71.7444 50.1201 71.3032 49.6856 71.3032 49.15V46.907H58.4909C53.4553 46.907 49.3586 42.8783 49.3586 37.9255C49.3586 32.9732 53.4555 28.9441 58.4909 28.9441H71.3032V26.2251C71.3032 25.558 70.7509 25.0154 70.0728 25.0154H23.0615C20.7917 25.0154 18.7479 24.0437 17.3381 22.5016V59.3493C17.3381 62.4527 19.9055 64.9782 23.0615 64.9782H70.0726C70.7508 64.9782 71.3031 64.4355 71.3031 63.7681V52.771C71.3031 52.2354 71.7443 51.8009 72.2895 51.8009C72.8341 51.8009 73.2759 52.2354 73.2759 52.771V55.9492Z" fill="url(#paint5_linear_84_943)"/>
<path id="Shape_7" fill-rule="evenodd" clip-rule="evenodd" d="M52.6011 37.6055C52.6011 34.5476 55.0889 32.0596 58.1468 32.0596C61.2047 32.0596 63.6925 34.5476 63.6925 37.6055C63.6925 40.6634 61.2046 43.151 58.1468 43.151C55.089 43.151 52.6011 40.6634 52.6011 37.6055ZM54.4976 37.6054C54.4976 39.6172 56.1344 41.2546 58.1466 41.2546C60.1589 41.2546 61.7957 39.6172 61.7957 37.6054C61.7957 35.5936 60.1589 33.9562 58.1466 33.9562C56.1344 33.9562 54.4976 35.5936 54.4976 37.6054Z" fill="url(#paint6_linear_84_943)"/>
</g>
</g>
<g id="Group-3">
<g id="Group-2">
<circle id="Oval" cx="17.5084" cy="2.24457" r="2.24469" transform="rotate(-90 17.5084 2.24457)" fill="#d07d2c"/>
<g id="Group 2170">
<rect id="Rectangle-8" y="15.7393" width="9.10636" height="2.27659" rx="1.1383" transform="rotate(-45 0 15.7393)" fill="#d07d2c"/>
<rect id="Rectangle-8_2" x="1.60986" y="9.30029" width="9.10636" height="2.27659" rx="1.1383" transform="rotate(45 1.60986 9.30029)" fill="#d07d2c"/>
</g>
<g id="Group 2171">
<rect id="Rectangle-8_3" x="77.2173" y="68.3901" width="9.10636" height="2.27659" rx="1.1383" transform="rotate(-45 77.2173 68.3901)" fill="#d07d2c"/>
<rect id="Rectangle-8_4" x="78.8271" y="61.9512" width="9.10636" height="2.27659" rx="1.1383" transform="rotate(45 78.8271 61.9512)" fill="#d07d2c"/>
</g>
</g>
</g>
</g>
<defs>
<linearGradient id="paint0_linear_84_943" x1="51.0166" y1="58.9954" x2="54.5169" y2="57.3046" gradientUnits="userSpaceOnUse">
<stop stop-color="#d07d2c"/>
<stop offset="1" stop-color="#d07d2c" stop-opacity="0.3"/>
</linearGradient>
<linearGradient id="paint1_linear_84_943" x1="34.3789" y1="58.9954" x2="37.8792" y2="57.3046" gradientUnits="userSpaceOnUse">
<stop stop-color="#d07d2c"/>
<stop offset="1" stop-color="#d07d2c" stop-opacity="0.3"/>
</linearGradient>
<linearGradient id="paint2_linear_84_943" x1="47.8472" y1="55.8266" x2="42.1854" y2="59.9289" gradientUnits="userSpaceOnUse">
<stop stop-color="#d07d2c"/>
<stop offset="1" stop-color="#d07d2c" stop-opacity="0.3"/>
</linearGradient>
<linearGradient id="paint3_linear_84_943" x1="51.8086" y1="55.0347" x2="54.8238" y2="54.2154" gradientUnits="userSpaceOnUse">
<stop stop-color="#d07d2c"/>
<stop offset="1" stop-color="#d07d2c" stop-opacity="0.3"/>
</linearGradient>
<linearGradient id="paint4_linear_84_943" x1="34.3789" y1="55.0347" x2="37.3941" y2="54.2154" gradientUnits="userSpaceOnUse">
<stop stop-color="#d07d2c"/>
<stop offset="1" stop-color="#d07d2c" stop-opacity="0.3"/>
</linearGradient>
<linearGradient id="paint5_linear_84_943" x1="15.3652" y1="66.9184" x2="92.9163" y2="33.7506" gradientUnits="userSpaceOnUse">
<stop stop-color="#d07d2c"/>
<stop offset="1" stop-color="#d07d2c" stop-opacity="0.3"/>
</linearGradient>
<linearGradient id="paint6_linear_84_943" x1="52.6011" y1="43.151" x2="65.9576" y2="38.3122" gradientUnits="userSpaceOnUse">
<stop stop-color="#d07d2c"/>
<stop offset="1" stop-color="#d07d2c" stop-opacity="0.3"/>
</linearGradient>
</defs>
</svg>
