<svg width="70" height="70" viewBox="0 0 70 70" fill="none" xmlns="http://www.w3.org/2000/svg">
<path d="M47.7178 43.8996C47.4994 43.2936 46.8312 42.9794 46.2253 43.1978C45.6193 43.4162 45.3052 44.0844 45.5235 44.6903C45.5289 44.7051 45.5346 44.7199 45.5406 44.7346C46.6042 47.5102 46.6812 49.6327 45.7505 50.5657C44.6216 51.6922 41.8099 51.34 38.2273 49.6257C33.4309 47.1352 29.0712 43.8818 25.3185 39.9928C16.1835 30.8566 12.4143 21.892 14.7456 19.5607C15.4895 18.9732 16.4564 18.7476 17.3836 18.945C18.0259 18.9922 18.5849 18.5097 18.6321 17.8674C18.6778 17.2465 18.2278 16.6993 17.6098 16.6242C15.9883 16.3373 14.3247 16.8101 13.0966 17.907C8.82355 22.1789 15.3555 33.322 23.6694 41.6371C27.6085 45.7133 32.1856 49.1203 37.2208 51.7237C38.1327 52.1603 39.0723 52.5363 40.0337 52.8491L31.7478 55.9909C20.6834 51.7843 12.7183 41.9753 10.8726 30.2829C10.7727 29.6466 10.1759 29.2116 9.53961 29.3114C8.9033 29.4113 8.4683 30.0081 8.56816 30.6444C8.75125 31.8106 8.99616 32.9768 9.29587 34.1174C11.9814 44.2924 19.0546 52.7453 28.5967 57.1827L14.959 62.3432C14.8965 62.2389 14.8177 62.1453 14.7258 62.0657C11.2598 59.2829 9.08508 55.2019 8.7081 50.7732L8.16698 44.2203C8.12441 43.5854 7.57513 43.1052 6.94012 43.1478C6.92802 43.1487 6.91592 43.1496 6.90397 43.1509C6.26197 43.2019 5.7828 43.7639 5.83382 44.4059C5.83397 44.4085 5.83426 44.4113 5.83455 44.4139L6.38501 50.9645C6.79493 55.6983 9.00315 60.0949 12.5554 63.2505L2.82689 66.9334L4.57621 59.7542C4.72884 59.1281 4.34515 58.4969 3.71904 58.3443C3.09293 58.1917 2.46172 58.5753 2.30909 59.2015L0.0338105 68.5312C-0.119546 69.1567 0.263263 69.7882 0.888936 69.9414C1.11839 69.9977 1.35936 69.9828 1.58021 69.8991L44.7301 53.5721C44.7987 53.5386 44.8636 53.4979 44.9237 53.4509C45.8575 53.3074 46.7233 52.8756 47.3995 52.2158C48.5551 51.0601 49.5499 48.6775 47.7178 43.8996Z" fill="url(#paint0_linear_83_685)"/>
<path d="M58.7229 40.8914C52.4185 38.5313 45.6045 37.8696 38.9637 38.973L34.7969 39.6727C34.1643 39.7943 33.7502 40.4055 33.8718 41.0381C33.9893 41.6492 34.5658 42.0604 35.1817 41.9725L39.3474 41.2786C45.584 40.2417 51.9838 40.8636 57.9042 43.0816C58.0356 43.1281 58.1742 43.1514 58.3136 43.1504C58.9576 43.1514 59.4806 42.6302 59.4817 41.986C59.4825 41.4984 59.1799 41.0618 58.7229 40.8914Z" fill="#00E29A"/>
<path d="M62.8695 22.8215C62.5925 22.2398 61.8965 21.9929 61.3149 22.2698L36.8244 33.932C36.2429 34.2088 35.9958 34.9046 36.2727 35.4862C36.2727 35.4864 36.2728 35.4865 36.2728 35.4865C36.5496 36.068 37.2454 36.3151 37.8271 36.0383C37.8272 36.0383 37.8272 36.0381 37.8274 36.0381L62.3178 24.376C62.8995 24.099 63.1464 23.4031 62.8695 22.8215Z" fill="#00E29A"/>
<path d="M28.3235 7.91473C28.1952 7.28351 27.5796 6.87578 26.9484 7.00406C26.3172 7.13234 25.9094 7.74796 26.0377 8.37917C26.0405 8.39317 26.0437 8.40701 26.0471 8.42086C27.5232 15.0157 26.9149 21.9062 24.3059 28.1404L22.6102 32.2093C22.3652 32.8021 22.6449 33.4816 23.2365 33.73C23.3782 33.7896 23.5305 33.8201 23.6843 33.8198C24.155 33.8198 24.5795 33.537 24.7607 33.1026L26.4576 29.0383C29.2528 22.3605 29.9049 14.9792 28.3235 7.91473Z" fill="#00E29A"/>
<path d="M64.1451 41.9829C62.2129 41.9829 60.6465 43.5493 60.6465 45.4816C60.6465 47.4138 62.2129 48.9802 64.1451 48.9802C66.0774 48.9802 67.6438 47.4138 67.6438 45.4816C67.6438 43.5493 66.0774 41.9829 64.1451 41.9829ZM64.1451 46.6478C63.5011 46.6478 62.9789 46.1256 62.9789 45.4816C62.9789 44.8375 63.5011 44.3153 64.1451 44.3153C64.7892 44.3153 65.3113 44.8375 65.3113 45.4816C65.3113 46.1256 64.7892 46.6478 64.1451 46.6478Z" fill="#00E29A"/>
<path d="M36.1549 9.33008C34.2226 9.33008 32.6562 10.8964 32.6562 12.8287C32.6562 14.761 34.2226 16.3274 36.1549 16.3274C38.0872 16.3274 39.6535 14.761 39.6535 12.8287C39.6535 10.8964 38.0872 9.33008 36.1549 9.33008ZM36.1549 13.9949C35.5108 13.9949 34.9887 13.4728 34.9887 12.8287C34.9887 12.1847 35.5108 11.6625 36.1549 11.6625C36.7989 11.6625 37.3211 12.1847 37.3211 12.8287C37.3211 13.4728 36.7989 13.9949 36.1549 13.9949Z" fill="#00E29A"/>
<path d="M25.6601 4.66485C26.9482 4.66485 27.9925 3.62059 27.9925 2.33243C27.9925 1.04426 26.9482 0 25.6601 0C24.3719 0 23.3276 1.04426 23.3276 2.33243C23.3276 3.62059 24.3719 4.66485 25.6601 4.66485Z" fill="#00E29A"/>
<path d="M58.3132 5.83008C57.6691 5.83008 57.147 6.35225 57.147 6.99629V8.1625C57.147 8.80654 57.6691 9.32872 58.3132 9.32872C58.9572 9.32872 59.4794 8.80654 59.4794 8.1625V6.99629C59.4794 6.35225 58.9572 5.83008 58.3132 5.83008Z" fill="#00E29A"/>
<path d="M58.3132 0C57.6691 0 57.147 0.522172 57.147 1.16621V2.33243C57.147 2.97647 57.6691 3.49864 58.3132 3.49864C58.9572 3.49864 59.4794 2.97647 59.4794 2.33243V1.16621C59.4794 0.522172 58.9572 0 58.3132 0Z" fill="#00E29A"/>
<path d="M61.8129 3.49854H60.6467C60.0026 3.49854 59.4805 4.02071 59.4805 4.66475C59.4805 5.30879 60.0026 5.83096 60.6467 5.83096H61.8129C62.4569 5.83096 62.9791 5.30879 62.9791 4.66475C62.9791 4.02071 62.4569 3.49854 61.8129 3.49854Z" fill="#00E29A"/>
<path d="M55.9823 3.49854H54.8161C54.1721 3.49854 53.6499 4.02071 53.6499 4.66475C53.6499 5.30879 54.1721 5.83096 54.8161 5.83096H55.9823C56.6264 5.83096 57.1485 5.30879 57.1485 4.66475C57.1485 4.02071 56.6264 3.49854 55.9823 3.49854Z" fill="#00E29A"/>
<path d="M50.1497 12.8032H44.2941C43.6501 12.8032 43.1279 13.3254 43.1279 13.9694V19.825C43.1279 20.469 43.6501 20.9912 44.2941 20.9912H50.1497C50.7937 20.9912 51.3159 20.469 51.3159 19.825V13.9694C51.3159 13.3254 50.7937 12.8032 50.1497 12.8032ZM48.9835 18.6588H45.4604V15.1356H48.9835V18.6588Z" fill="#00E29A"/>
<path d="M41.6537 22.5437C41.2256 22.0867 40.513 22.0494 40.0395 22.4592L28.3774 32.9551C27.899 33.386 27.8603 34.1232 28.2911 34.6018C28.722 35.0802 29.4592 35.1189 29.9378 34.6881L41.5999 24.1922C42.0701 23.7518 42.0941 23.0139 41.6537 22.5437Z" fill="#00E29A"/>
<path d="M62.9787 26.8232C62.3347 26.8232 61.8125 27.3454 61.8125 27.9895V29.1557C61.8125 29.7997 62.3347 30.3219 62.9787 30.3219C63.6227 30.3219 64.1449 29.7997 64.1449 29.1557V27.9895C64.1449 27.3454 63.6227 26.8232 62.9787 26.8232Z" fill="#00E29A"/>
<path d="M67.9273 26.6227L67.1028 25.7981C66.6395 25.3506 65.9013 25.3634 65.4538 25.8267C65.0174 26.2786 65.0174 26.9951 65.4538 27.4472L66.2783 28.2717C66.7416 28.7192 67.4798 28.7064 67.9273 28.2431C68.3639 27.7911 68.3639 27.0746 67.9273 26.6227Z" fill="#00E29A"/>
<path d="M68.81 22.1582H67.6438C66.9997 22.1582 66.4775 22.6804 66.4775 23.3244C66.4775 23.9685 66.9997 24.4906 67.6438 24.4906H68.81C69.454 24.4906 69.9762 23.9685 69.9762 23.3244C69.9762 22.6804 69.454 22.1582 68.81 22.1582Z" fill="#00E29A"/>
<path d="M67.8987 18.3771C67.4468 17.9407 66.7303 17.9407 66.2783 18.3771L65.4538 19.2017C64.9984 19.6572 64.9985 20.3956 65.4541 20.851C65.6727 21.0695 65.9692 21.1924 66.2783 21.1924C66.5876 21.1924 66.8841 21.0694 67.1028 20.8507L67.9273 20.0262C68.3749 19.5629 68.362 18.8245 67.8987 18.3771Z" fill="#00E29A"/>
<path d="M62.9787 16.3276C62.3347 16.3276 61.8125 16.8498 61.8125 17.4938V18.6601C61.8125 19.3041 62.3347 19.8263 62.9787 19.8263C63.6227 19.8263 64.1449 19.3041 64.1449 18.6601V17.4938C64.1449 16.8498 63.6227 16.3276 62.9787 16.3276Z" fill="#00E29A"/>
<path d="M60.504 19.2017L59.6795 18.3772C59.2162 17.9298 58.478 17.9425 58.0305 18.4058C57.594 18.8577 57.594 19.5742 58.0305 20.0262L58.855 20.8507C59.3183 21.2983 60.0565 21.2854 60.504 20.8222C60.9406 20.3701 60.9406 19.6536 60.504 19.2017Z" fill="#00E29A"/>
<path d="M13.9399 5.04382C13.8025 4.62194 13.4377 4.31465 12.9987 4.2508L9.57588 3.75282L8.04931 0.651863C7.70907 0.0741499 6.96488 -0.118421 6.38717 0.221822C6.20961 0.326343 6.06165 0.474307 5.95712 0.651863L4.42355 3.75282L1.00072 4.2508C0.363239 4.34278 -0.0789018 4.9342 0.0130832 5.57168C0.0496732 5.82548 0.168918 6.06003 0.352305 6.23919L2.82818 8.65325L2.24507 12.0621C2.13311 12.6964 2.55645 13.3013 3.19072 13.4133C3.44612 13.4583 3.7091 13.4171 3.93841 13.2959L6.99972 11.6819L10.061 13.2913C10.6312 13.591 11.3363 13.3719 11.636 12.8018C11.7554 12.5748 11.7965 12.3149 11.7532 12.0621L11.1701 8.65325L13.6471 6.23919C13.9642 5.92883 14.0776 5.46555 13.9399 5.04382ZM9.0989 7.41123C8.82426 7.67873 8.69875 8.06417 8.76303 8.44217L9.05225 10.1273L7.54201 9.33082C7.20249 9.15254 6.79694 9.15254 6.45743 9.33082L4.94135 10.1262L5.23057 8.441C5.29603 8.06446 5.1727 7.67961 4.90054 7.41123L3.67485 6.2182L5.36702 5.97213C5.74691 5.91702 6.07535 5.67839 6.24518 5.33421L6.99972 3.80297L7.75542 5.33421C7.92511 5.67809 8.25296 5.91659 8.63242 5.97213L10.3234 6.2182L9.0989 7.41123Z" fill="#00E29A"/>
<path d="M66.0365 58.4566H66.0318L65.5513 57.7359C62.8572 53.7071 58.6208 50.9677 53.8414 50.1637C53.2037 50.0727 52.613 50.5159 52.5221 51.1535C52.4342 51.7696 52.8454 52.3461 53.4565 52.4635C56.9038 53.0486 60.0455 54.8 62.3559 57.4245C60.4134 57.774 58.7145 58.9406 57.691 60.6281C56.435 62.8776 57.2404 65.7192 59.4899 66.9752C61.7394 68.2312 64.581 67.4258 65.837 65.1764C66.3168 64.2502 66.5758 63.2256 66.5939 62.1827C67.8348 63.9849 67.934 66.3385 66.8493 68.2388C66.5207 68.7928 66.7034 69.5083 67.2573 69.8368C67.8113 70.1654 68.5268 69.9828 68.8553 69.4288C68.8658 69.411 68.8759 69.3931 68.8855 69.3747C71.0209 65.5606 69.7631 60.7411 66.0365 58.4566ZM63.8032 64.0381C63.1807 65.166 61.7618 65.5756 60.6341 64.9532C59.5064 64.3307 59.0966 62.9119 59.7191 61.7841C59.7226 61.7779 59.7261 61.7715 59.7296 61.7652C60.4178 60.6383 61.5786 59.8829 62.8877 59.7103C63.0905 59.7048 63.2912 59.7514 63.4708 59.8456C64.4551 60.3949 64.5075 62.7763 63.8032 64.0381Z" fill="#00E29A"/>
<defs>
<linearGradient id="paint0_linear_83_685" x1="-1.45227e-06" y1="69.9749" x2="59.8506" y2="50.2007" gradientUnits="userSpaceOnUse">
<stop stop-color="#00E29A"/>
<stop offset="1" stop-color="#00E29A" stop-opacity="0"/>
</linearGradient>
</defs>
</svg>
