<svg width="35" height="35" viewBox="0 0 35 35" fill="none" xmlns="http://www.w3.org/2000/svg">
<g opacity="0.1">
<rect width="35" height="35" rx="6" fill="#FEC004"/>
</g>
<path d="M17.9388 21.0547C17.3272 21.0547 16.8145 21.5674 16.8145 22.179C16.8145 22.7907 17.3272 23.3034 17.9388 23.3034C18.528 23.3034 19.0632 22.7907 19.0362 22.206C19.0632 21.5629 18.555 21.0547 17.9388 21.0547Z" fill="#FEC004"/>
<path d="M28.3459 25.0391C29.052 23.8203 29.0565 22.3677 28.3549 21.1534L21.3119 8.95638C20.6148 7.72858 19.3555 7 17.9434 7C16.5312 7 15.2719 7.73308 14.5748 8.95188L7.52285 21.1624C6.82125 22.3902 6.82575 23.8518 7.53634 25.0706C8.23793 26.2759 9.49271 27 10.8959 27H24.9638C26.3715 27 27.6353 26.2669 28.3459 25.0391ZM26.8168 24.1576C26.4255 24.8322 25.7329 25.2325 24.9593 25.2325H10.8914C10.1268 25.2325 9.43874 24.8412 9.05646 24.1801C8.66969 23.51 8.66519 22.7095 9.05197 22.0349L16.1039 9.82887C16.4862 9.15876 17.1698 8.76299 17.9434 8.76299C18.7124 8.76299 19.4005 9.16326 19.7828 9.83337L26.8302 22.0394C27.208 22.696 27.2035 23.4875 26.8168 24.1576Z" fill="#FEC004"/>
<path d="M17.66 13.1616C17.1248 13.3145 16.792 13.8003 16.792 14.3894C16.819 14.7447 16.8415 15.1045 16.8684 15.4598C16.9449 16.8135 17.0214 18.1403 17.0978 19.494C17.1248 19.9527 17.4801 20.2855 17.9388 20.2855C18.3976 20.2855 18.7574 19.9302 18.7798 19.467C18.7798 19.1882 18.7798 18.9318 18.8068 18.6485C18.8563 17.7805 18.9103 16.9125 18.9597 16.0445C18.9867 15.4823 19.0362 14.9201 19.0632 14.3579C19.0632 14.1556 19.0362 13.9757 18.9597 13.7958C18.7304 13.292 18.1952 13.0357 17.66 13.1616Z" fill="#FEC004"/>
</svg>
