<svg width="192" height="24" viewBox="0 0 192 24" fill="none" xmlns="http://www.w3.org/2000/svg">
<path d="M95.6123 20.6832H89.1449V3.39306H95.6123V20.6832ZM89.7765 20.0516H94.9807V4.02463H89.7765V20.0516ZM104.611 20.6832H98.2737V3.39306H111.514C113.411 3.23946 115.3 3.77196 116.837 4.89369C117.499 5.49913 118.012 6.2493 118.336 7.08563C118.66 7.92198 118.786 8.82189 118.705 9.71516C118.8 11.2587 118.309 12.7811 117.33 13.9783C116.171 15.3072 114.244 15.9918 111.601 16.0158C110.936 16.0335 105.947 16.0158 104.615 16.0158L104.611 20.6832ZM98.9015 20.0516H103.979V15.3779H104.296C104.361 15.3779 110.837 15.3981 111.586 15.3779C114.048 15.3564 115.818 14.7463 116.852 13.5552C117.724 12.4719 118.156 11.101 118.065 9.7139C118.143 8.91352 118.035 8.10601 117.75 7.35399C117.465 6.60197 117.011 5.92565 116.423 5.37748C114.997 4.35444 113.254 3.87423 111.505 4.02337H98.9053L98.9015 20.0516ZM110.173 12.1316H103.936V7.42506H110.214C110.659 7.36356 111.113 7.41551 111.532 7.57604C111.952 7.73659 112.324 8.00052 112.614 8.34337C112.878 8.78161 113.002 9.28945 112.971 9.79979C112.994 10.2736 112.892 10.7452 112.674 11.1665C112.374 11.5276 111.987 11.8056 111.549 11.9738C111.111 12.1419 110.637 12.1945 110.173 12.1265V12.1316ZM104.568 11.5H110.173C111.208 11.5 111.85 11.284 112.134 10.8394C112.291 10.5162 112.362 10.1582 112.34 9.79979C112.368 9.42345 112.286 9.04713 112.105 8.716L112.098 8.70463C111.797 8.26253 111.2 8.05663 110.214 8.05663H104.568V11.5ZM130.232 20.9383C124.56 20.9383 121.175 19.5299 119.885 16.6335C119.674 16.074 119.531 15.4913 119.458 14.8979L119.403 14.5341H126.15L126.195 14.7994C126.246 15.0687 126.361 15.3222 126.528 15.5396C126.795 15.8617 127.684 16.4023 130.635 16.4023C134.182 16.4023 134.182 15.7796 134.182 15.4448C134.182 14.8802 133.771 14.687 130.878 14.3787L130.329 14.327C129.24 14.2246 127.863 14.0945 127.234 14.0402C121.929 13.5602 119.56 11.9118 119.56 8.69706C119.56 5.32063 123.591 3.13916 129.83 3.13916C134.919 3.13916 138.198 4.48063 139.574 7.12948C139.9 7.74562 140.12 8.41283 140.222 9.10253L140.266 9.45748H133.511L133.483 9.172C133.456 8.9489 133.362 8.73961 133.21 8.57327C132.958 8.23474 132.159 7.67516 129.681 7.67516C126.638 7.67516 126.219 8.06421 126.219 8.48358C126.219 9.04316 127.18 9.24148 130.261 9.57116C131.545 9.676 133.611 9.88821 134.318 9.97411C138.766 10.4566 140.75 12.0646 140.75 15.1897C140.751 17.8107 138.926 20.9383 130.232 20.9383ZM120.14 15.1657C120.204 15.5823 120.312 15.9905 120.465 16.3834C121.64 19.0221 124.835 20.3067 130.232 20.3067C134.744 20.3067 140.123 19.4225 140.123 15.1897C140.123 12.4196 138.368 11.0478 134.251 10.6019C133.544 10.516 131.491 10.3051 130.209 10.199C126.925 9.84274 125.59 9.65327 125.59 8.48358C125.59 7.27348 127.028 7.04358 129.683 7.04358C131.782 7.04358 133.137 7.42253 133.712 8.18674C133.868 8.37501 133.987 8.59215 134.06 8.8259H139.535C139.425 8.33737 139.251 7.86551 139.017 7.42253C137.754 4.99853 134.668 3.77074 129.832 3.77074C123.978 3.77074 120.195 5.70463 120.195 8.69706C120.195 11.5518 122.318 12.9615 127.292 13.4112C127.924 13.4655 129.299 13.5956 130.391 13.6992L130.944 13.7509C133.631 14.0339 134.816 14.2107 134.816 15.4448C134.816 16.7737 133.283 17.0339 130.637 17.0339C128.189 17.0339 126.643 16.6663 126.046 15.9425C125.861 15.7118 125.722 15.4481 125.636 15.1657H120.14ZM152.75 20.9168C146.156 20.9168 142.518 18.2503 142.518 13.4074V3.39306H148.9V13.4074C148.9 15.0684 150.387 16.0208 152.977 16.0208C155.453 16.0208 156.99 15.0267 156.99 13.4288V3.39306H163.306V13.9379C163.312 18.3728 159.461 20.9168 152.746 20.9168H152.75ZM143.15 4.02463V13.4074C143.15 19.3922 149.16 20.2853 152.75 20.2853C156.461 20.2853 162.685 19.4604 162.685 13.9379V4.02463H157.632V13.4288C157.632 15.3867 155.808 16.6524 152.987 16.6524C150.039 16.6524 148.278 15.4398 148.278 13.4074V4.02463H143.15ZM190.07 20.6832H184.047V12.8768L180.632 20.6832H175.378L171.998 12.892V20.6832H165.954V3.39306H173.904L178.035 12.9261L182.365 3.39306H190.078L190.07 20.6832ZM184.679 20.0516H189.438V4.02463H182.766L178.014 14.4823L173.485 4.02463H166.58V20.0516H171.361V9.85285L175.782 20.0554H180.203L184.671 9.868L184.679 20.0516ZM7.6472 3.70884H1.89478V20.3674H17.7904V15.9324H7.6472V3.70884ZM29.4013 3.3299C22.0586 3.3299 18.1971 6.8099 18.1971 11.9194C18.1971 17.692 22.2506 20.62 29.4013 20.62C37.2733 20.62 40.584 17.2246 40.584 11.9194C40.584 6.532 36.8489 3.32737 29.4013 3.32737V3.3299ZM29.3798 7.65874C29.8797 7.65639 30.3792 7.68549 30.8754 7.7459L24.4447 14.1766C24.1404 13.4883 23.992 12.7412 24.0101 11.9888C24.0101 9.37537 25.3264 7.65621 29.3798 7.65621V7.65874ZM29.4013 16.3594C28.9197 16.3615 28.4384 16.3345 27.96 16.2785L34.4021 9.83642C34.6951 10.5134 34.8353 11.2465 34.8127 11.9838C34.8127 14.5265 33.6 16.3568 29.4013 16.3568V16.3594ZM51.9815 14.0857H57.9019C57.8148 14.4966 57.6331 14.8815 57.3714 15.2099C56.144 16.2098 54.5776 16.6964 52.9996 16.5678C52.2053 16.6528 51.4022 16.566 50.6445 16.3134C49.8867 16.0609 49.192 15.6483 48.6076 15.1038C48.009 14.2258 47.7247 13.1713 47.8005 12.1114C47.7036 11.0007 48.0128 9.89266 48.6708 8.99263C49.4981 8.0579 50.899 7.65495 52.9579 7.65495C54.268 7.54648 55.5763 7.88293 56.6716 8.6099C57.0168 8.8841 57.2749 9.25273 57.4144 9.67095H62.9053C62.8654 8.98186 62.6997 8.30589 62.4165 7.67642C61.1015 5.00232 58.0447 3.41074 52.8468 3.41074C48.3259 3.41074 45.2918 4.79011 43.6156 6.87053C42.5086 8.37288 41.9403 10.2046 42.0026 12.0697C41.9309 13.9771 42.4846 15.8555 43.579 17.4192C45.235 19.5665 48.1845 20.6225 51.7289 20.6225C54.0853 20.7869 56.4257 20.1269 58.3491 18.7556L58.4981 20.3674H63.0594V10.4996H51.9815V14.0857ZM76.0055 3.32611C68.664 3.32611 64.8013 6.80611 64.8013 11.9156C64.8013 17.6882 68.8535 20.6162 76.0055 20.6162C83.8788 20.6162 87.1895 17.2208 87.1895 11.9156C87.1895 6.532 83.4544 3.32737 76.0055 3.32737V3.32611ZM75.9853 7.65495C76.472 7.65351 76.9583 7.68135 77.4417 7.73832L71.0363 14.1476C70.7414 13.4669 70.5979 12.7304 70.6156 11.9888C70.6106 9.37537 71.9318 7.65621 75.9853 7.65621V7.65495ZM76.0055 16.3556C75.5111 16.3577 75.0171 16.3289 74.5264 16.2697L80.9899 9.80485C81.294 10.4908 81.4395 11.2364 81.4156 11.9863C81.4182 14.5265 80.2106 16.3568 76.0055 16.3568V16.3556Z" fill="#878890"/>
</svg>
